<svg id="content" xmlns="http://www.w3.org/2000/svg" xmlns:xlink="http://www.w3.org/1999/xlink" viewBox="0 0 760 256"><defs><style>.cls-1{fill:none;}.cls-2{fill:#fff;}.cls-3{clip-path:url(#clip-path);}</style><clipPath id="clip-path"><rect class="cls-1" width="760" height="256"/></clipPath><symbol id="logo_light" data-name="logo_light" viewBox="0 0 416 136"><path class="cls-2" d="M.72,52.57C.72,23.64,25,.08,54,.08a50,50,0,0,1,36,14.47L79.83,24.66A36.55,36.55,0,0,0,54,14.42c-21.12,0-37.63,17-37.63,38.15S32.85,90.71,54,90.71c13.7,0,21.51-5.5,26.5-10.5,4.1-4.09,6.78-10,7.81-18H54V47.83h48.26a46.9,46.9,0,0,1,.77,9c0,10.75-2.94,24.06-12.42,33.54-9.21,9.6-21,14.72-36.61,14.72C25,105.05.72,81.5.72,52.57Z"/><path class="cls-2" d="M142,37.46c-18.69,0-33.92,14.21-33.92,33.79s15.23,33.8,33.92,33.8,33.92-14.34,33.92-33.8S160.69,37.46,142,37.46Zm0,54.28c-10.24,0-19.07-8.45-19.07-20.49S131.76,50.77,142,50.77s19.07,8.32,19.07,20.48S152.24,91.74,142,91.74Z"/><path class="cls-2" d="M216,37.46c-18.69,0-33.92,14.21-33.92,33.79s15.23,33.8,33.92,33.8,33.92-14.34,33.92-33.8S234.69,37.46,216,37.46Zm0,54.28c-10.24,0-19.07-8.45-19.07-20.49S205.76,50.77,216,50.77s19.07,8.32,19.07,20.48S226.24,91.74,216,91.74Z"/><path class="cls-2" d="M306.83,39.51V45h-.51c-3.33-4-9.73-7.55-17.79-7.55-16.9,0-32.39,14.85-32.39,33.92s15.49,33.67,32.39,33.67c8.06,0,14.46-3.59,17.79-7.68h.51v4.86c0,12.93-6.91,19.84-18.05,19.84-9.09,0-14.72-6.53-17-12l-12.93,5.38a32.2,32.2,0,0,0,29.95,20c17.41,0,32.13-10.24,32.13-35.21V39.51Zm-17,52.23c-10.24,0-18.82-8.58-18.82-20.36s8.58-20.61,18.82-20.61,18,8.71,18,20.61S299.92,91.74,289.81,91.74Z"/><rect class="cls-2" x="331.15" y="3.67" width="14.85" height="99.33"/><path class="cls-2" d="M386.71,91.74c-7.56,0-12.93-3.46-16.39-10.24l45.19-18.69L414,59c-2.81-7.56-11.39-21.51-28.93-21.51s-31.87,13.7-31.87,33.79c0,19,14.33,33.8,33.54,33.8a33.61,33.61,0,0,0,28.16-15l-11.52-7.68C399.51,88,394.26,91.74,386.71,91.74Zm-1.16-41.22c5.89,0,10.88,2.94,12.55,7.17L367.89,70.23C367.5,57.17,378,50.52,385.55,50.52Z"/><rect class="cls-1" width="416" height="136"/></symbol></defs><title>lockup_google_dot_org_light</title><g class="cls-3"><rect class="cls-1" x="64" y="57" width="632" height="136"/><path class="cls-2" d="M489.14,152.06a8.71,8.71,0,1,1,8.71,8.71A8.63,8.63,0,0,1,489.14,152.06Z"/><path class="cls-2" d="M580.79,128.64c0,19.07-13.44,33.41-32.25,33.41s-32.26-14.34-32.26-33.41,13.44-33.41,32.26-33.41S580.79,109.57,580.79,128.64Zm-11.77,0C569,114.3,559,106,548.54,106s-20.48,8.32-20.48,22.66,10,22.66,20.48,22.66S569,143,569,128.64Z"/><path class="cls-2" d="M590.26,160V97.28h11.27v10.24H602c2.56-7.17,11.65-11.78,18.18-11.78a21.33,21.33,0,0,1,8.83,1.54l-4.48,11a17.55,17.55,0,0,0-6.27-.9c-8.07,0-16.26,6.78-16.26,18.3V160Z"/><path class="cls-2" d="M633.14,171.39l10.76-4.48a18.46,18.46,0,0,0,17.53,12c13.06,0,20.87-8.45,20.87-21.64v-6h-.52c-3.84,5.76-11.39,10.75-21.37,10.75-16,0-29.83-14.21-29.83-33.41s13.83-33.41,29.83-33.41c10,0,17.53,5,21.37,10.75h.52v-8.7h11.26V156.8c0,22.78-15.62,32.9-32.13,32.9S636.34,179,633.14,171.39Zm49.16-42.75c0-14.34-9.48-22.66-20-22.66s-20,8.58-20,22.66,9.47,22.66,20,22.66S682.3,143,682.3,128.64Z"/><use width="416" height="136" transform="translate(64 57)" xlink:href="#logo_light"/></g></svg>